<?xml version="1.0" encoding="UTF-8"?>
<svg xmlns="http://www.w3.org/2000/svg" xmlns:xlink="http://www.w3.org/1999/xlink" width="133px" height="40px" viewBox="0 0 133 40" version="1.1">
<g id="surface1">
<path style=" stroke:none;fill-rule:nonzero;fill:rgb(24.705882%,52.54902%,25.882353%);fill-opacity:1;" d="M 90.867188 40.464844 C 60.699219 40.464844 30.53125 40.464844 0.339844 40.464844 C 0.339844 27.164062 0.339844 13.859375 0.339844 0.511719 C 44.648438 0.511719 88.980469 0.511719 133.3125 0.511719 C 133.3125 4.996094 133.3125 9.488281 133.195312 14.164062 C 132.367188 14.496094 131.550781 14.386719 131.007812 14.90625 C 130.777344 15.128906 130.894531 17.070312 131.253906 17.5 C 131.738281 18.078125 132.609375 17.960938 133.3125 18.140625 C 133.3125 25.5625 133.3125 32.988281 133.3125 40.464844 C 119.789062 40.464844 106.261719 40.464844 92.621094 40.3125 C 93.277344 38.84375 92.992188 37.558594 92.328125 36.476562 C 92.082031 36.078125 91.503906 35.953125 91.105469 36.023438 C 90.953125 36.050781 90.792969 36.96875 90.78125 37.492188 C 90.753906 38.480469 90.832031 39.472656 90.867188 40.464844 M 51.019531 30.664062 C 51.59375 30.6875 52.175781 30.605469 52.738281 30.746094 C 54.398438 31.164062 54.757812 30.050781 54.703125 27.777344 C 54.609375 23.78125 54.738281 19.773438 55.097656 15.796875 C 56.324219 15.390625 57.777344 16.816406 58.816406 14.75 C 58.816406 14.75 58.847656 14.757812 59.101562 14.800781 C 59.355469 14.828125 59.609375 14.851562 59.960938 15.292969 C 59.964844 17.609375 59.945312 19.929688 59.980469 22.25 C 60.058594 27.722656 62.628906 31.125 66.605469 31.066406 C 70.511719 31.007812 72.945312 27.621094 72.976562 22.160156 C 72.992188 19.683594 72.96875 17.210938 72.96875 14.734375 C 72.964844 9.625 72.886719 9.53125 69.125 10.511719 C 69.125 14.304688 69.164062 18.15625 69.113281 22.003906 C 69.074219 24.734375 68.203125 26.125 66.65625 26.222656 C 65.007812 26.324219 64.054688 24.976562 63.945312 22.152344 C 63.863281 20.074219 63.917969 17.980469 63.917969 15.890625 C 63.914062 10.101562 63.917969 10.101562 59.769531 10.257812 C 59.472656 10.28125 59.171875 10.304688 58.609375 10.28125 C 55.546875 10.253906 52.480469 10.214844 49.414062 10.203125 C 46.285156 10.1875 46.285156 10.199219 46.644531 15.140625 C 47.21875 15.367188 47.796875 15.804688 48.363281 15.773438 C 49.585938 15.707031 50.042969 16.390625 50.007812 18.210938 C 49.945312 21.609375 49.949219 25.015625 50.027344 28.410156 C 50.042969 29.167969 50.496094 29.902344 51.019531 30.664062 M 79.53125 25.878906 C 79.035156 22.644531 79.144531 22.429688 81.332031 22.429688 C 82.667969 22.429688 84.003906 22.429688 85.292969 22.429688 C 85.703125 18.109375 85.703125 18.109375 83.160156 18.109375 C 82.324219 18.109375 81.484375 18.0625 80.652344 18.125 C 79.785156 18.1875 79.296875 17.90625 79.289062 16.367188 C 79.277344 14.722656 79.894531 14.691406 80.695312 14.707031 C 82.503906 14.738281 84.316406 14.714844 86.175781 14.714844 C 86.175781 13.078125 86.175781 11.730469 86.175781 10.34375 C 82.582031 10.34375 79.097656 10.34375 75.328125 10.34375 C 75.328125 16.882812 75.328125 23.28125 75.25 29.832031 C 75.289062 29.996094 75.328125 30.164062 75.570312 30.488281 C 79.160156 30.488281 82.753906 30.488281 86.570312 30.488281 C 86.527344 29.03125 86.484375 27.597656 86.347656 25.820312 C 84.609375 25.585938 82.871094 25.285156 81.128906 25.167969 C 80.6875 25.140625 80.230469 25.695312 79.53125 25.878906 M 24.117188 10.558594 C 22.117188 17.136719 20.121094 23.71875 17.996094 30.714844 C 19.320312 30.714844 20.261719 30.835938 21.179688 30.660156 C 21.59375 30.578125 22.21875 29.992188 22.300781 29.480469 C 22.714844 26.878906 23.832031 26.328125 25.429688 26.652344 C 26.148438 26.796875 26.898438 26.757812 27.621094 26.652344 C 28.621094 26.507812 29.132812 27.101562 29.472656 28.496094 C 29.679688 29.328125 30.164062 30.449219 30.644531 30.605469 C 31.660156 30.929688 32.753906 30.703125 34.09375 30.703125 C 32.390625 24.988281 30.832031 19.78125 29.28125 14.570312 C 27.886719 9.871094 27.890625 9.867188 24.117188 10.558594 M 111.421875 14.722656 C 112.0625 15.015625 112.699219 15.304688 113.460938 15.652344 C 113.761719 14.671875 114.164062 13.800781 114.265625 12.859375 C 114.328125 12.273438 114.039062 11.183594 113.726562 11 C 111.328125 9.585938 108.847656 9.234375 106.382812 10.609375 C 104.527344 11.644531 103.445312 14.046875 103.5 16.652344 C 103.550781 19.121094 104.53125 20.851562 106.566406 21.859375 C 107.800781 22.46875 109.09375 22.832031 110.320312 23.488281 C 110.730469 23.707031 111.003906 24.472656 111.339844 24.992188 C 110.964844 25.445312 110.628906 26.140625 110.199219 26.300781 C 109.5625 26.535156 108.839844 26.5625 108.191406 26.378906 C 106.980469 26.03125 105.796875 25.46875 104.476562 24.945312 C 104.109375 26.195312 103.726562 27.492188 103.296875 28.960938 C 106.25 31.050781 109.101562 31.8125 112.101562 30.375 C 114.136719 29.402344 115.222656 27.21875 115.21875 24.40625 C 115.210938 21.675781 114.226562 20.003906 111.964844 18.988281 C 110.816406 18.472656 109.628906 18.140625 108.503906 17.539062 C 108.085938 17.316406 107.800781 16.558594 107.457031 16.042969 C 107.820312 15.574219 108.148438 14.792969 108.550781 14.695312 C 109.402344 14.492188 110.292969 14.644531 111.421875 14.722656 M 90.496094 19.203125 C 89.402344 22.921875 88.3125 26.640625 87.113281 30.714844 C 88.359375 30.714844 89.257812 30.859375 90.117188 30.660156 C 90.578125 30.550781 91.257812 29.957031 91.351562 29.398438 C 91.777344 26.910156 92.847656 26.371094 94.382812 26.652344 C 95.105469 26.785156 95.851562 26.769531 96.578125 26.652344 C 97.640625 26.480469 98.191406 27.078125 98.539062 28.59375 C 98.726562 29.402344 99.261719 30.453125 99.753906 30.613281 C 100.738281 30.929688 101.804688 30.707031 102.867188 30.707031 C 102.867188 30.246094 102.917969 29.988281 102.863281 29.800781 C 101.035156 23.636719 99.207031 17.472656 97.359375 11.328125 C 96.757812 9.335938 95.523438 10.308594 94.582031 10.289062 C 93.996094 10.273438 93.113281 10.808594 92.859375 11.496094 C 91.984375 13.859375 91.328125 16.402344 90.496094 19.203125 M 37.996094 10.296875 C 35.523438 11.605469 34.386719 13.71875 34.492188 16.800781 C 34.585938 19.511719 35.769531 21.25 38.214844 22.226562 C 38.96875 22.527344 39.796875 22.589844 40.480469 23.089844 C 41.140625 23.566406 41.660156 24.46875 42.242188 25.1875 C 41.523438 25.640625 40.78125 26.542969 40.09375 26.460938 C 38.566406 26.277344 37.070312 25.597656 35.402344 25.074219 C 35.0625 26.1875 34.664062 27.480469 34.222656 28.921875 C 37.320312 31.15625 40.332031 31.898438 43.453125 30.167969 C 45.265625 29.164062 46.230469 26.859375 46.175781 24.238281 C 46.121094 21.699219 45.140625 20 43.109375 19.0625 C 41.816406 18.464844 40.484375 18.027344 39.203125 17.382812 C 38.882812 17.222656 38.425781 16.464844 38.476562 16.125 C 38.554688 15.585938 39.011719 14.769531 39.304688 14.773438 C 40.683594 14.789062 42.078125 14.894531 43.425781 15.28125 C 44.191406 15.5 44.597656 15.46875 44.847656 14.3125 C 45.046875 13.398438 45.335938 12.527344 45.625 11.484375 C 43.089844 9.894531 40.730469 9.3125 37.996094 10.296875 M 4.902344 14.417969 C 6.273438 19.1875 7.710938 23.917969 8.984375 28.742188 C 9.445312 30.503906 10.144531 30.851562 11.25 30.742188 C 12.367188 30.636719 13.4375 31.054688 14.027344 28.800781 C 15.507812 23.179688 17.191406 17.675781 18.785156 12.125 C 18.9375 11.59375 19.027344 11.023438 19.15625 10.4375 C 15.613281 9.703125 15.613281 9.707031 14.355469 14.105469 C 14.050781 15.171875 13.738281 16.238281 13.429688 17.304688 C 12.894531 19.160156 12.359375 21.015625 11.652344 23.480469 C 10.425781 19.152344 9.417969 15.523438 8.355469 11.929688 C 8.167969 11.289062 7.78125 10.382812 7.425781 10.320312 C 6.277344 10.113281 5.101562 10.242188 3.71875 10.242188 C 4.167969 11.832031 4.488281 12.960938 4.902344 14.417969 M 120.722656 30.679688 C 121.195312 30.695312 121.671875 30.636719 122.132812 30.738281 C 123.667969 31.078125 124.402344 30.34375 124.144531 27.871094 C 123.820312 24.738281 124.464844 21.992188 125.695312 19.40625 C 126.71875 17.265625 127.542969 14.917969 128.445312 12.652344 C 128.71875 11.96875 128.949219 11.25 129.230469 10.472656 C 126.859375 9.664062 125.132812 10.089844 124.234375 13.601562 C 123.839844 15.132812 123.097656 16.464844 122.363281 18.257812 C 121.625 16.445312 121.042969 15.011719 120.460938 13.578125 C 118.957031 9.867188 118.226562 9.4375 115.152344 10.625 C 115.9375 12.582031 116.644531 14.546875 117.476562 16.382812 C 119.277344 20.351562 120.84375 24.386719 120.230469 29.464844 C 120.191406 29.785156 120.378906 30.167969 120.722656 30.679688 M 3.199219 27.015625 C 3.238281 26.191406 3.398438 25.320312 3.273438 24.554688 C 3.175781 23.957031 2.722656 23.484375 2.425781 22.953125 C 2.050781 23.484375 1.476562 23.917969 1.34375 24.558594 C 0.980469 26.269531 1.644531 27.214844 3.199219 27.015625 M 4.472656 24.195312 C 4.722656 24.589844 4.96875 24.980469 5.378906 25.628906 C 5.378906 23.992188 5.378906 22.824219 5.378906 21.570312 C 4.128906 21.652344 4.046875 22.585938 4.472656 24.195312 M 80.019531 23.503906 C 80.019531 23.503906 80.015625 23.484375 80.019531 23.503906 Z M 80.019531 23.503906 "/>
<path style=" stroke:none;fill-rule:nonzero;fill:rgb(24.705882%,52.156863%,28.627451%);fill-opacity:1;" d="M 133.3125 17.933594 C 132.609375 17.960938 131.738281 18.078125 131.253906 17.5 C 130.894531 17.070312 130.777344 15.128906 131.007812 14.90625 C 131.550781 14.386719 132.367188 14.496094 133.195312 14.382812 C 133.3125 15.519531 133.3125 16.625 133.3125 17.933594 Z M 133.3125 17.933594 "/>
<path style=" stroke:none;fill-rule:nonzero;fill:rgb(25.098039%,52.156863%,29.019608%);fill-opacity:1;" d="M 91 40.464844 C 90.832031 39.472656 90.753906 38.480469 90.78125 37.492188 C 90.792969 36.96875 90.953125 36.050781 91.105469 36.023438 C 91.503906 35.953125 92.082031 36.078125 92.328125 36.476562 C 92.992188 37.558594 93.277344 38.84375 92.472656 40.3125 C 92.003906 40.464844 91.566406 40.464844 91 40.464844 Z M 91 40.464844 "/>
<path style=" stroke:none;fill-rule:nonzero;fill:rgb(95.294118%,97.254902%,96.078431%);fill-opacity:1;" d="M 86.441406 26.164062 C 86.484375 27.597656 86.527344 29.03125 86.570312 30.488281 C 82.753906 30.488281 79.160156 30.488281 75.480469 30.242188 C 75.367188 29.890625 75.347656 29.785156 75.328125 29.679688 C 75.328125 23.28125 75.328125 16.882812 75.328125 10.34375 C 79.097656 10.34375 82.582031 10.34375 86.175781 10.34375 C 86.175781 11.730469 86.175781 13.078125 86.175781 14.714844 C 84.316406 14.714844 82.503906 14.738281 80.695312 14.707031 C 79.894531 14.691406 79.277344 14.722656 79.289062 16.367188 C 79.296875 17.90625 79.785156 18.1875 80.652344 18.125 C 81.484375 18.0625 82.324219 18.109375 83.160156 18.109375 C 85.703125 18.109375 85.703125 18.109375 85.292969 22.429688 C 84.003906 22.429688 82.667969 22.429688 81.332031 22.429688 C 79.144531 22.429688 79.035156 22.644531 79.789062 26 C 82.179688 26.132812 84.308594 26.148438 86.441406 26.164062 Z M 86.441406 26.164062 "/>
<path style=" stroke:none;fill-rule:nonzero;fill:rgb(96.470588%,98.039216%,97.254902%);fill-opacity:1;" d="M 60.066406 10.242188 C 63.917969 10.101562 63.914062 10.101562 63.917969 15.890625 C 63.917969 17.980469 63.863281 20.074219 63.945312 22.152344 C 64.054688 24.976562 65.007812 26.324219 66.65625 26.222656 C 68.203125 26.125 69.074219 24.734375 69.113281 22.003906 C 69.164062 18.15625 69.125 14.304688 69.125 10.511719 C 72.886719 9.53125 72.964844 9.625 72.96875 14.734375 C 72.96875 17.210938 72.992188 19.683594 72.976562 22.160156 C 72.945312 27.621094 70.511719 31.007812 66.605469 31.066406 C 62.628906 31.125 60.058594 27.722656 59.980469 22.25 C 59.945312 19.929688 59.964844 17.609375 59.953125 14.882812 C 59.988281 13.0625 60.027344 11.652344 60.066406 10.242188 Z M 60.066406 10.242188 "/>
<path style=" stroke:none;fill-rule:nonzero;fill:rgb(96.470588%,98.039216%,96.862745%);fill-opacity:1;" d="M 24.222656 10.445312 C 27.890625 9.867188 27.886719 9.871094 29.28125 14.570312 C 30.832031 19.78125 32.390625 24.988281 34.09375 30.703125 C 32.753906 30.703125 31.660156 30.929688 30.644531 30.605469 C 30.164062 30.449219 29.679688 29.328125 29.472656 28.496094 C 29.132812 27.101562 28.621094 26.507812 27.621094 26.652344 C 26.898438 26.757812 26.148438 26.796875 25.429688 26.652344 C 23.832031 26.328125 22.714844 26.878906 22.300781 29.480469 C 22.21875 29.992188 21.59375 30.578125 21.179688 30.660156 C 20.261719 30.835938 19.320312 30.714844 17.996094 30.714844 C 20.121094 23.71875 22.117188 17.136719 24.222656 10.445312 M 27.59375 21.808594 C 27.121094 20.015625 26.648438 18.222656 26.011719 15.792969 C 25.339844 18.332031 24.84375 20.203125 24.222656 22.550781 C 25.578125 22.398438 26.546875 22.285156 27.59375 21.808594 Z M 27.59375 21.808594 "/>
<path style=" stroke:none;fill-rule:nonzero;fill:rgb(95.686275%,97.647059%,96.470588%);fill-opacity:1;" d="M 111.296875 14.6875 C 110.292969 14.644531 109.402344 14.492188 108.550781 14.695312 C 108.148438 14.792969 107.820312 15.574219 107.457031 16.042969 C 107.800781 16.558594 108.085938 17.316406 108.503906 17.539062 C 109.628906 18.140625 110.816406 18.472656 111.964844 18.988281 C 114.226562 20.003906 115.210938 21.675781 115.21875 24.40625 C 115.222656 27.21875 114.136719 29.402344 112.101562 30.375 C 109.101562 31.8125 106.25 31.050781 103.296875 28.960938 C 103.726562 27.492188 104.109375 26.195312 104.476562 24.945312 C 105.796875 25.46875 106.980469 26.03125 108.191406 26.378906 C 108.839844 26.5625 109.5625 26.535156 110.199219 26.300781 C 110.628906 26.140625 110.964844 25.445312 111.339844 24.992188 C 111.003906 24.472656 110.730469 23.707031 110.320312 23.488281 C 109.09375 22.832031 107.800781 22.46875 106.566406 21.859375 C 104.53125 20.851562 103.550781 19.121094 103.5 16.652344 C 103.445312 14.046875 104.527344 11.644531 106.382812 10.609375 C 108.847656 9.234375 111.328125 9.585938 113.726562 11 C 114.039062 11.183594 114.328125 12.273438 114.265625 12.859375 C 114.164062 13.800781 113.761719 14.671875 113.460938 15.652344 C 112.699219 15.304688 112.0625 15.015625 111.296875 14.6875 Z M 111.296875 14.6875 "/>
<path style=" stroke:none;fill-rule:nonzero;fill:rgb(96.470588%,98.039216%,96.862745%);fill-opacity:1;" d="M 90.539062 19.042969 C 91.328125 16.402344 91.984375 13.859375 92.859375 11.496094 C 93.113281 10.808594 93.996094 10.273438 94.582031 10.289062 C 95.523438 10.308594 96.757812 9.335938 97.359375 11.328125 C 99.207031 17.472656 101.035156 23.636719 102.863281 29.800781 C 102.917969 29.988281 102.867188 30.246094 102.867188 30.707031 C 101.804688 30.707031 100.738281 30.929688 99.753906 30.613281 C 99.261719 30.453125 98.726562 29.402344 98.539062 28.59375 C 98.191406 27.078125 97.640625 26.480469 96.578125 26.652344 C 95.851562 26.769531 95.105469 26.785156 94.382812 26.652344 C 92.847656 26.371094 91.777344 26.910156 91.351562 29.398438 C 91.257812 29.957031 90.578125 30.550781 90.117188 30.660156 C 89.257812 30.859375 88.359375 30.714844 87.113281 30.714844 C 88.3125 26.640625 89.402344 22.921875 90.539062 19.042969 M 95.972656 19.128906 C 95.730469 18.261719 95.488281 17.394531 95.066406 15.878906 C 94.375 18.40625 93.882812 20.214844 93.328125 22.25 C 94.558594 22.25 95.59375 22.25 96.796875 22.25 C 96.507812 21.148438 96.285156 20.300781 95.972656 19.128906 Z M 95.972656 19.128906 "/>
<path style=" stroke:none;fill-rule:nonzero;fill:rgb(95.686275%,97.647059%,96.470588%);fill-opacity:1;" d="M 38.121094 10.25 C 40.730469 9.3125 43.089844 9.894531 45.625 11.484375 C 45.335938 12.527344 45.046875 13.398438 44.847656 14.3125 C 44.597656 15.46875 44.191406 15.5 43.425781 15.28125 C 42.078125 14.894531 40.683594 14.789062 39.304688 14.773438 C 39.011719 14.769531 38.554688 15.585938 38.476562 16.125 C 38.425781 16.464844 38.882812 17.222656 39.203125 17.382812 C 40.484375 18.027344 41.816406 18.464844 43.109375 19.0625 C 45.140625 20 46.121094 21.699219 46.175781 24.238281 C 46.230469 26.859375 45.265625 29.164062 43.453125 30.167969 C 40.332031 31.898438 37.320312 31.15625 34.222656 28.921875 C 34.664062 27.480469 35.0625 26.1875 35.402344 25.074219 C 37.070312 25.597656 38.566406 26.277344 40.09375 26.460938 C 40.78125 26.542969 41.523438 25.640625 42.242188 25.1875 C 41.660156 24.46875 41.140625 23.566406 40.480469 23.089844 C 39.796875 22.589844 38.96875 22.527344 38.214844 22.226562 C 35.769531 21.25 34.585938 19.511719 34.492188 16.800781 C 34.386719 13.71875 35.523438 11.605469 38.121094 10.25 Z M 38.121094 10.25 "/>
<path style=" stroke:none;fill-rule:nonzero;fill:rgb(96.078431%,97.647059%,96.470588%);fill-opacity:1;" d="M 4.855469 14.253906 C 4.488281 12.960938 4.167969 11.832031 3.71875 10.242188 C 5.101562 10.242188 6.277344 10.113281 7.425781 10.320312 C 7.78125 10.382812 8.167969 11.289062 8.355469 11.929688 C 9.417969 15.523438 10.425781 19.152344 11.652344 23.480469 C 12.359375 21.015625 12.894531 19.160156 13.429688 17.304688 C 13.738281 16.238281 14.050781 15.171875 14.355469 14.105469 C 15.613281 9.707031 15.613281 9.703125 19.15625 10.4375 C 19.027344 11.023438 18.9375 11.59375 18.785156 12.125 C 17.191406 17.675781 15.507812 23.179688 14.027344 28.800781 C 13.4375 31.054688 12.367188 30.636719 11.25 30.742188 C 10.144531 30.851562 9.445312 30.503906 8.984375 28.742188 C 7.710938 23.917969 6.273438 19.1875 4.855469 14.253906 M 8.023438 21.898438 C 8.453125 22.46875 8.882812 23.035156 9.3125 23.605469 C 9.601562 22.992188 10.203125 22.230469 10.109375 21.800781 C 9.929688 20.980469 9.355469 20.347656 8.945312 19.636719 C 8.648438 20.289062 8.351562 20.9375 8.023438 21.898438 Z M 8.023438 21.898438 "/>
<path style=" stroke:none;fill-rule:nonzero;fill:rgb(94.901961%,97.254902%,95.686275%);fill-opacity:1;" d="M 46.550781 14.808594 C 46.285156 10.199219 46.285156 10.1875 49.414062 10.203125 C 52.480469 10.214844 55.546875 10.253906 58.746094 10.507812 C 58.871094 12.074219 58.859375 13.417969 58.847656 14.757812 C 58.847656 14.757812 58.816406 14.75 58.675781 14.773438 C 57.605469 14.8125 56.675781 14.742188 55.757812 14.878906 C 55.410156 14.929688 55.097656 15.457031 54.773438 15.769531 C 54.738281 19.773438 54.609375 23.78125 54.703125 27.777344 C 54.757812 30.050781 54.398438 31.164062 52.738281 30.746094 C 52.175781 30.605469 51.59375 30.6875 50.867188 30.441406 C 50.714844 25.15625 50.714844 20.09375 50.714844 14.808594 C 49.148438 14.808594 47.847656 14.808594 46.550781 14.808594 Z M 46.550781 14.808594 "/>
<path style=" stroke:none;fill-rule:nonzero;fill:rgb(95.686275%,97.647059%,96.078431%);fill-opacity:1;" d="M 120.59375 30.601562 C 120.378906 30.167969 120.191406 29.785156 120.230469 29.464844 C 120.84375 24.386719 119.277344 20.351562 117.476562 16.382812 C 116.644531 14.546875 115.9375 12.582031 115.152344 10.625 C 118.226562 9.4375 118.957031 9.867188 120.460938 13.578125 C 121.042969 15.011719 121.625 16.445312 122.363281 18.257812 C 123.097656 16.464844 123.839844 15.132812 124.234375 13.601562 C 125.132812 10.089844 126.859375 9.664062 129.230469 10.472656 C 128.949219 11.25 128.71875 11.96875 128.445312 12.652344 C 127.542969 14.917969 126.71875 17.265625 125.695312 19.40625 C 124.464844 21.992188 123.820312 24.738281 124.144531 27.871094 C 124.402344 30.34375 123.667969 31.078125 122.132812 30.738281 C 121.671875 30.636719 121.195312 30.695312 120.59375 30.601562 Z M 120.59375 30.601562 "/>
<path style=" stroke:none;fill-rule:nonzero;fill:rgb(19.607843%,49.019608%,20.392157%);fill-opacity:1;" d="M 46.597656 14.976562 C 47.847656 14.808594 49.148438 14.808594 50.714844 14.808594 C 50.714844 20.09375 50.714844 25.15625 50.730469 30.433594 C 50.496094 29.902344 50.042969 29.167969 50.027344 28.410156 C 49.949219 25.015625 49.945312 21.609375 50.007812 18.210938 C 50.042969 16.390625 49.585938 15.707031 48.363281 15.773438 C 47.796875 15.804688 47.21875 15.367188 46.597656 14.976562 Z M 46.597656 14.976562 "/>
<path style=" stroke:none;fill-rule:nonzero;fill:rgb(25.098039%,52.156863%,29.019608%);fill-opacity:1;" d="M 3.105469 27.101562 C 1.644531 27.214844 0.980469 26.269531 1.34375 24.558594 C 1.476562 23.917969 2.050781 23.484375 2.425781 22.953125 C 2.722656 23.484375 3.175781 23.957031 3.273438 24.554688 C 3.398438 25.320312 3.238281 26.191406 3.105469 27.101562 Z M 3.105469 27.101562 "/>
<path style=" stroke:none;fill-rule:nonzero;fill:rgb(20%,49.411765%,20.784314%);fill-opacity:1;" d="M 86.394531 25.992188 C 84.308594 26.148438 82.179688 26.132812 79.914062 26.050781 C 80.230469 25.695312 80.6875 25.140625 81.128906 25.167969 C 82.871094 25.285156 84.609375 25.585938 86.394531 25.992188 Z M 86.394531 25.992188 "/>
<path style=" stroke:none;fill-rule:nonzero;fill:rgb(25.098039%,52.156863%,29.019608%);fill-opacity:1;" d="M 4.433594 24.042969 C 4.046875 22.585938 4.128906 21.652344 5.378906 21.570312 C 5.378906 22.824219 5.378906 23.992188 5.378906 25.628906 C 4.96875 24.980469 4.722656 24.589844 4.433594 24.042969 Z M 4.433594 24.042969 "/>
<path style=" stroke:none;fill-rule:nonzero;fill:rgb(20.784314%,49.803922%,21.568627%);fill-opacity:1;" d="M 58.972656 14.78125 C 58.859375 13.417969 58.871094 12.074219 58.878906 10.53125 C 59.171875 10.304688 59.472656 10.28125 59.917969 10.25 C 60.027344 11.652344 59.988281 13.0625 59.90625 14.675781 C 59.609375 14.851562 59.355469 14.828125 58.972656 14.78125 Z M 58.972656 14.78125 "/>
<path style=" stroke:none;fill-rule:nonzero;fill:rgb(20.784314%,49.803922%,21.568627%);fill-opacity:1;" d="M 54.933594 15.785156 C 55.097656 15.457031 55.410156 14.929688 55.757812 14.878906 C 56.675781 14.742188 57.605469 14.8125 58.667969 14.796875 C 57.777344 16.816406 56.324219 15.390625 54.933594 15.785156 Z M 54.933594 15.785156 "/>
<path style=" stroke:none;fill-rule:nonzero;fill:rgb(19.215686%,49.019608%,20.392157%);fill-opacity:1;" d="M 75.289062 29.753906 C 75.347656 29.785156 75.367188 29.890625 75.375 30.164062 C 75.328125 30.164062 75.289062 29.996094 75.289062 29.753906 Z M 75.289062 29.753906 "/>
<path style=" stroke:none;fill-rule:nonzero;fill:rgb(31.372549%,57.254902%,33.72549%);fill-opacity:1;" d="M 27.554688 21.992188 C 26.546875 22.285156 25.578125 22.398438 24.222656 22.550781 C 24.84375 20.203125 25.339844 18.332031 26.011719 15.792969 C 26.648438 18.222656 27.121094 20.015625 27.554688 21.992188 Z M 27.554688 21.992188 "/>
<path style=" stroke:none;fill-rule:nonzero;fill:rgb(30.588235%,56.862745%,32.941176%);fill-opacity:1;" d="M 96.019531 19.292969 C 96.285156 20.300781 96.507812 21.148438 96.796875 22.25 C 95.59375 22.25 94.558594 22.25 93.328125 22.25 C 93.882812 20.214844 94.375 18.40625 95.066406 15.878906 C 95.488281 17.394531 95.730469 18.261719 96.019531 19.292969 Z M 96.019531 19.292969 "/>
<path style=" stroke:none;fill-rule:nonzero;fill:rgb(93.72549%,93.72549%,93.72549%);fill-opacity:1;" d="M 8.039062 21.746094 C 8.351562 20.9375 8.648438 20.289062 8.945312 19.636719 C 9.355469 20.347656 9.929688 20.980469 10.109375 21.800781 C 10.203125 22.230469 9.601562 22.992188 9.3125 23.605469 C 8.882812 23.035156 8.453125 22.46875 8.039062 21.746094 Z M 8.039062 21.746094 "/>
</g>
</svg>
